<svg width="68" height="60" viewBox="0 0 68 60" fill="none" xmlns="http://www.w3.org/2000/svg">
<path opacity="0.354986" fill-rule="evenodd" clip-rule="evenodd" d="M34 60C50.5685 60 64 46.5685 64 30C64 13.4315 50.5685 0 34 0C17.4315 0 4 13.4315 4 30C4 46.5685 17.4315 60 34 60Z" fill="white"/>
<path fill-rule="evenodd" clip-rule="evenodd" d="M34 54C47.2548 54 58 43.2548 58 30C58 16.7452 47.2548 6 34 6C20.7452 6 10 16.7452 10 30C10 43.2548 20.7452 54 34 54Z" fill="white"/>
<path fill-rule="evenodd" clip-rule="evenodd" d="M20 30C20 29.7348 20.1053 29.4804 20.2929 29.2929C20.4804 29.1054 20.7348 29 21 29H44.586L38.292 22.708C38.199 22.615 38.1253 22.5047 38.0749 22.3832C38.0246 22.2617 37.9987 22.1315 37.9987 22C37.9987 21.8685 38.0246 21.7383 38.0749 21.6169C38.1253 21.4954 38.199 21.385 38.292 21.292C38.385 21.199 38.4953 21.1253 38.6168 21.075C38.7383 21.0247 38.8685 20.9988 39 20.9988C39.1315 20.9988 39.2617 21.0247 39.3832 21.075C39.5046 21.1253 39.615 21.199 39.708 21.292L47.708 29.292C47.8011 29.3849 47.875 29.4953 47.9254 29.6168C47.9758 29.7382 48.0018 29.8685 48.0018 30C48.0018 30.1316 47.9758 30.2618 47.9254 30.3833C47.875 30.5048 47.8011 30.6151 47.708 30.708L39.708 38.708C39.615 38.801 39.5046 38.8747 39.3832 38.9251C39.2617 38.9754 39.1315 39.0013 39 39.0013C38.8685 39.0013 38.7383 38.9754 38.6168 38.9251C38.4953 38.8747 38.385 38.801 38.292 38.708C38.199 38.615 38.1253 38.5047 38.0749 38.3832C38.0246 38.2617 37.9987 38.1315 37.9987 38C37.9987 37.8685 38.0246 37.7383 38.0749 37.6169C38.1253 37.4954 38.199 37.385 38.292 37.292L44.586 31H21C20.7348 31 20.4804 30.8947 20.2929 30.7071C20.1053 30.5196 20 30.2652 20 30Z" fill="#FE5000"/>
</svg>
