<svg width="18" height="18" viewBox="0 0 18 18" fill="none" xmlns="http://www.w3.org/2000/svg">
<path d="M6.25 1.25V5.625C6.25 5.97 5.97 6.25 5.625 6.25H1.25V11.75H5.625C5.97 11.75 6.25 12.03 6.25 12.375V16.75H11.75V12.375C11.75 12.03 12.03 11.75 12.375 11.75H16.75V6.25H12.375C12.03 6.25 11.75 5.97 11.75 5.625V1.25H6.25ZM5 1.125C5 0.826631 5.11853 0.540483 5.3295 0.329505C5.54048 0.118527 5.82663 0 6.125 0H11.875C12.1734 0 12.4595 0.118527 12.6705 0.329505C12.8815 0.540483 13 0.826631 13 1.125V5H16.875C17.1734 5 17.4595 5.11853 17.6705 5.3295C17.8815 5.54048 18 5.82663 18 6.125V11.875C18 12.1734 17.8815 12.4595 17.6705 12.6705C17.4595 12.8815 17.1734 13 16.875 13H13V16.875C13 17.1734 12.8815 17.4595 12.6705 17.6705C12.4595 17.8815 12.1734 18 11.875 18H6.125C5.82663 18 5.54048 17.8815 5.3295 17.6705C5.11853 17.4595 5 17.1734 5 16.875V13H1.125C0.826631 13 0.540483 12.8815 0.329505 12.6705C0.118527 12.4595 0 12.1734 0 11.875V6.125C0 5.82663 0.118527 5.54048 0.329505 5.3295C0.540483 5.11853 0.826631 5 1.125 5H5V1.125Z" fill="white"/>
</svg>
