<svg width="45" height="44" viewBox="0 0 45 44" fill="none" xmlns="http://www.w3.org/2000/svg">
<rect opacity="0.350303" width="45" height="44" rx="12" fill="white"/>
<path d="M23 22C24.1935 22 25.3381 21.5259 26.182 20.682C27.0259 19.8381 27.5 18.6935 27.5 17.5C27.5 16.3065 27.0259 15.1619 26.182 14.318C25.3381 13.4741 24.1935 13 23 13C21.8065 13 20.6619 13.4741 19.818 14.318C18.9741 15.1619 18.5 16.3065 18.5 17.5C18.5 18.6935 18.9741 19.8381 19.818 20.682C20.6619 21.5259 21.8065 22 23 22ZM26 17.5C26 18.2956 25.6839 19.0587 25.1213 19.6213C24.5587 20.1839 23.7956 20.5 23 20.5C22.2044 20.5 21.4413 20.1839 20.8787 19.6213C20.3161 19.0587 20 18.2956 20 17.5C20 16.7044 20.3161 15.9413 20.8787 15.3787C21.4413 14.8161 22.2044 14.5 23 14.5C23.7956 14.5 24.5587 14.8161 25.1213 15.3787C25.6839 15.9413 26 16.7044 26 17.5ZM32 29.5C32 31 30.5 31 30.5 31H15.5C15.5 31 14 31 14 29.5C14 28 15.5 23.5 23 23.5C30.5 23.5 32 28 32 29.5ZM30.5 29.494C30.4985 29.125 30.269 28.015 29.252 26.998C28.274 26.02 26.4335 25 23 25C19.565 25 17.726 26.02 16.748 26.998C15.731 28.015 15.503 29.125 15.5 29.494H30.5Z" fill="white"/>
</svg>
